<svg width="32" height="32" viewBox="0 0 32 32" fill="none" xmlns="http://www.w3.org/2000/svg">
<circle cx="16" cy="16" r="16" fill="#FF4A6B"/>
<path d="M10 16C9.99949 14.6788 10.4351 13.3943 11.2392 12.346C12.0434 11.2976 13.171 10.544 14.4473 10.2021C15.7235 9.86014 17.0769 9.94903 18.2974 10.4549C19.518 10.9608 20.5374 11.8555 21.1975 13M17.5 13H21.25V9.25" stroke="white" stroke-linecap="round" stroke-linejoin="round"/>
<path d="M22 16C22.0005 17.3212 21.5649 18.6057 20.7608 19.654C19.9566 20.7024 18.829 21.456 17.5527 21.7979C16.2765 22.1399 14.9231 22.051 13.7026 21.5451C12.482 21.0392 11.4626 20.1445 10.8025 19M14.5 19H10.75V22.75" stroke="white" stroke-linecap="round" stroke-linejoin="round"/>
</svg>
