<svg width="47" height="47" viewBox="0 0 47 47" fill="none" xmlns="http://www.w3.org/2000/svg">
<circle cx="23.5" cy="23.5" r="23.5" fill="#FF4141"/>
<g clip-path="url(#clip0_28_1131)">
<path d="M13.8629 26.2879L14.2035 25.9219L14.2035 25.9219L13.8629 26.2879ZM15.5955 26.9512L15.5864 26.4512H15.5864L15.5955 26.9512ZM18.4169 26.3822L18.1755 25.9444L18.1754 25.9444L18.4169 26.3822ZM19.8124 23.8811L19.3124 23.8745L19.3124 23.8752L19.8124 23.8811ZM19.8124 23.8759L19.3124 23.874V23.8759L19.8124 23.8759ZM19.8171 22.6358L19.6827 22.1542C19.4672 22.2143 19.3179 22.4102 19.3171 22.6339L19.8171 22.6358ZM23.2975 22.1911L23.2975 22.6911H23.2977L23.2975 22.1911ZM23.4186 22.1911L23.4186 21.6911L23.4184 21.6911L23.4186 22.1911ZM26.8988 22.6356L27.3988 22.6338C27.3979 22.41 27.2486 22.2141 27.0331 22.154L26.8988 22.6356ZM26.9034 23.8758H27.4034L27.4034 23.874L26.9034 23.8758ZM26.9034 23.8811L27.4034 23.8752L27.4034 23.8746L26.9034 23.8811ZM28.2989 26.3822L28.0574 26.82L28.0574 26.82L28.2989 26.3822ZM31.1203 26.9511L31.1112 27.451L31.1112 27.451L31.1203 26.9511ZM32.8528 26.2879L32.5122 25.9218L32.5122 25.9218L32.8528 26.2879ZM33.6391 24.6075L34.1384 24.6345L34.1384 24.6341L33.6391 24.6075ZM33.6404 24.5824L33.1411 24.5557L33.1411 24.5559L33.6404 24.5824ZM33.6414 24.5475L34.1414 24.5485L34.1414 24.5475L33.6414 24.5475ZM31.9299 20.7871L32.2817 20.4317L32.2817 20.4317L31.9299 20.7871ZM23.3579 17.7798L23.3579 18.2798L23.3579 18.2798L23.3579 17.7798ZM21.2931 17.9224L21.2276 17.4267L21.2196 17.4277L21.2116 17.4291L21.2931 17.9224ZM18.0305 18.7684L17.875 18.2933L17.8603 18.2981L17.8459 18.3038L18.0305 18.7684ZM14.7858 20.7871L14.434 20.4318L14.4332 20.4326L14.7858 20.7871ZM13.0743 24.5475L12.5743 24.5475L12.5743 24.5485L13.0743 24.5475ZM13.0753 24.5825L13.5746 24.556L13.5745 24.5548L13.0753 24.5825ZM13.0766 24.6077L12.5773 24.6341L12.5773 24.6346L13.0766 24.6077ZM19.8223 18.2253L19.6968 17.7413L19.8223 18.2253ZM13.5223 26.654C14.0895 27.1817 14.8301 27.4652 15.6046 27.4511L15.5864 26.4512C15.0709 26.4606 14.581 26.2731 14.2035 25.9219L13.5223 26.654ZM15.6046 27.4511C16.9008 27.4275 17.8925 27.2425 18.6584 26.82L18.1754 25.9444C17.6173 26.2523 16.8159 26.4289 15.5864 26.4512L15.6046 27.4511ZM18.6584 26.82C19.7482 26.2189 20.2968 25.1994 20.3124 23.8871L19.3124 23.8752C19.3006 24.8756 18.9101 25.5392 18.1755 25.9444L18.6584 26.82ZM20.3124 23.8878C20.3124 23.8822 20.3124 23.8771 20.3124 23.8759H19.3124C19.3124 23.8782 19.3124 23.8766 19.3124 23.8745L20.3124 23.8878ZM20.3124 23.8778L20.3171 22.6376L19.3171 22.6339L19.3124 23.874L20.3124 23.8778ZM19.9514 23.1174C20.5264 22.9569 21.7183 22.6911 23.2975 22.6911V21.6911C21.608 21.6911 20.3242 21.9752 19.6827 22.1542L19.9514 23.1174ZM23.2977 22.6911L23.4188 22.6911L23.4184 21.6911L23.2973 21.6911L23.2977 22.6911ZM23.4186 22.6911C24.9981 22.6911 26.19 22.957 26.7644 23.1172L27.0331 22.154C26.3923 21.9753 25.1084 21.6911 23.4186 21.6911L23.4186 22.6911ZM26.3988 22.6375L26.4034 23.8777L27.4034 23.874L27.3988 22.6338L26.3988 22.6375ZM26.4034 23.8758C26.4034 23.8771 26.4034 23.8821 26.4035 23.8876L27.4034 23.8746C27.4034 23.8766 27.4034 23.8781 27.4034 23.8758L26.4034 23.8758ZM26.4034 23.887C26.4189 25.1993 26.9675 26.2188 28.0574 26.82L28.5404 25.9444C27.8057 25.5391 27.4152 24.8755 27.4034 23.8752L26.4034 23.887ZM28.0574 26.82C28.8233 27.2425 29.815 27.4274 31.1112 27.451L31.1294 26.4512C29.8999 26.4288 29.0985 26.2522 28.5404 25.9444L28.0574 26.82ZM31.1112 27.451C31.8856 27.4651 32.6263 27.1816 33.1934 26.6539L32.5122 25.9218C32.1347 26.273 31.6448 26.4605 31.1294 26.4512L31.1112 27.451ZM33.1934 26.6539C33.7609 26.126 34.0966 25.4079 34.1384 24.6345L33.1398 24.5806C33.112 25.0955 32.89 25.5704 32.5122 25.9218L33.1934 26.6539ZM34.1384 24.6341L34.1397 24.609L33.1411 24.5559L33.1398 24.581L34.1384 24.6341ZM34.1397 24.6091C34.1408 24.5883 34.1413 24.568 34.1414 24.5485L33.1414 24.5465C33.1414 24.5503 33.1413 24.5534 33.1411 24.5557L34.1397 24.6091ZM34.1414 24.5475C34.1414 23.0403 33.4792 21.6174 32.2817 20.4317L31.5781 21.1424C32.6199 22.1738 33.1414 23.3515 33.1414 24.5475L34.1414 24.5475ZM32.2817 20.4317C30.2607 18.4309 26.9147 17.2798 23.3579 17.2798L23.3579 18.2798C26.7321 18.2798 29.795 19.377 31.5781 21.1424L32.2817 20.4317ZM23.3579 17.2798C22.6804 17.2798 21.9637 17.3295 21.2276 17.4267L21.3585 18.4181C22.0557 18.326 22.7285 18.2798 23.3579 18.2798L23.3579 17.2798ZM17.8459 18.3038C16.4622 18.8535 15.3089 19.5656 14.434 20.4318L15.1375 21.1424C15.8961 20.3915 16.9261 19.7452 18.2151 19.2331L17.8459 18.3038ZM14.4332 20.4326C14.4246 20.4411 14.4155 20.4501 14.4063 20.4593L15.1134 21.1664C15.1215 21.1584 15.1296 21.1503 15.1384 21.1416L14.4332 20.4326ZM14.4063 20.4593C13.2263 21.6394 12.5743 23.0521 12.5743 24.5475L13.5743 24.5475C13.5743 23.3607 14.0878 22.1921 15.1134 21.1664L14.4063 20.4593ZM12.5743 24.5485C12.5744 24.5681 12.5749 24.5886 12.576 24.6101L13.5745 24.5548C13.5744 24.553 13.5743 24.5503 13.5743 24.5465L12.5743 24.5485ZM12.576 24.6089L12.5773 24.6341L13.5759 24.5813L13.5746 24.556L12.576 24.6089ZM12.5773 24.6346C12.6191 25.4081 12.9552 26.1264 13.5223 26.654L14.2035 25.9219C13.826 25.5707 13.6037 25.0955 13.5759 24.5807L12.5773 24.6346ZM18.0305 18.7684C18.186 19.2436 18.186 19.2436 18.186 19.2436C18.186 19.2436 18.186 19.2436 18.186 19.2436C18.1861 19.2436 18.1861 19.2436 18.1862 19.2436C18.1863 19.2436 18.1865 19.2435 18.1867 19.2434C18.1872 19.2432 18.188 19.243 18.1891 19.2426C18.1912 19.2419 18.1944 19.2409 18.1986 19.2395C18.207 19.2368 18.2196 19.2327 18.2358 19.2274C18.2682 19.2169 18.3153 19.2017 18.3739 19.1828C18.4912 19.1451 18.6541 19.0931 18.8367 19.036C19.2048 18.921 19.6424 18.7885 19.9479 18.7093L19.6968 17.7413C19.3653 17.8273 18.9069 17.9664 18.5383 18.0816C18.3526 18.1397 18.187 18.1925 18.0678 18.2308C18.0082 18.25 17.9602 18.2655 17.9269 18.2763C17.9103 18.2817 17.8974 18.2859 17.8886 18.2888C17.8842 18.2902 17.8808 18.2913 17.8785 18.2921C17.8774 18.2925 17.8765 18.2927 17.8759 18.2929C17.8756 18.293 17.8754 18.2931 17.8752 18.2932C17.8752 18.2932 17.8751 18.2932 17.875 18.2932C17.875 18.2932 17.875 18.2932 17.875 18.2932C17.875 18.2932 17.875 18.2933 18.0305 18.7684ZM19.9479 18.7093C20.2509 18.6307 20.6063 18.5573 20.8905 18.503C21.0316 18.476 21.1533 18.4541 21.2394 18.4389C21.2825 18.4314 21.3166 18.4255 21.3398 18.4215C21.3514 18.4196 21.3603 18.4181 21.3662 18.4171C21.3691 18.4166 21.3713 18.4162 21.3727 18.416C21.3734 18.4159 21.3739 18.4158 21.3742 18.4158C21.3744 18.4157 21.3745 18.4157 21.3745 18.4157C21.3746 18.4157 21.3746 18.4157 21.3746 18.4157C21.3746 18.4157 21.3746 18.4157 21.3746 18.4157C21.3746 18.4157 21.3746 18.4157 21.2931 17.9224C21.2116 17.4291 21.2116 17.4291 21.2115 17.4291C21.2115 17.4291 21.2115 17.4291 21.2115 17.4291C21.2114 17.4291 21.2114 17.4291 21.2113 17.4291C21.2111 17.4291 21.211 17.4292 21.2107 17.4292C21.2102 17.4293 21.2095 17.4294 21.2086 17.4296C21.2068 17.4299 21.2043 17.4303 21.2009 17.4308C21.1943 17.432 21.1846 17.4336 21.1722 17.4357C21.1473 17.4399 21.1113 17.4461 21.0663 17.454C20.9762 17.4699 20.8496 17.4927 20.7027 17.5208C20.4109 17.5766 20.0309 17.6547 19.6968 17.7413L19.9479 18.7093Z" fill="white"/>
</g>
<defs>
<clipPath id="clip0_28_1131">
<rect width="20" height="20" fill="white" transform="translate(37.5 24) rotate(135)"/>
</clipPath>
</defs>
</svg>
