<svg width="46" height="46" viewBox="0 0 46 46" fill="none" xmlns="http://www.w3.org/2000/svg">
<circle opacity="0.3" cx="23" cy="23" r="22.5" fill="#EDF1F5" fill-opacity="0.25" stroke="#EDF1F5"/>
<path d="M26 19.25C26 17.5931 24.6569 16.25 23 16.25C21.3431 16.25 20 17.5931 20 19.25V22.25C20 23.9069 21.3431 25.25 23 25.25C24.6569 25.25 26 23.9069 26 22.25V19.25Z" stroke="white" stroke-linecap="round" stroke-linejoin="round"/>
<path d="M27.6875 26C27.1244 26.7008 26.4108 27.2663 25.5995 27.6549C24.7882 28.0436 23.8999 28.2453 23 28.2453C22.1001 28.2453 21.2118 28.0436 20.4005 27.6549C19.5892 27.2663 18.8756 26.7008 18.3125 26M23 28.25V29.75" stroke="white" stroke-linecap="round" stroke-linejoin="round"/>
</svg>
