<svg width="46" height="46" viewBox="0 0 46 46" fill="none" xmlns="http://www.w3.org/2000/svg">
<circle cx="23" cy="23" r="23" fill="white"/>
<path d="M18.1538 18.5H24.3846C25.4361 18.5 26.2885 19.3524 26.2885 20.4038V25.9423C26.2885 26.9938 25.4361 27.8462 24.3846 27.8462H18.1538C17.1024 27.8462 16.25 26.9938 16.25 25.9423V20.4038C16.25 19.3524 17.1024 18.5 18.1538 18.5Z" stroke="#1B1919"/>
<path d="M26.2802 20.3327L28.0882 19.6094C28.7094 19.3609 29.4145 19.6631 29.663 20.2844C29.7203 20.4275 29.7497 20.5802 29.7497 20.7343V25.6123C29.7497 26.2814 29.2073 26.8238 28.5381 26.8238C28.384 26.8238 28.2313 26.7944 28.0882 26.7372L26.2884 26.0172L26.2802 20.3327Z" stroke="#1B1919"/>
</svg>
