<svg width="50" height="50" viewBox="0 0 50 50" fill="none" xmlns="http://www.w3.org/2000/svg">
<rect width="50" height="50" rx="15" fill="#FAFAFA"/>
<path d="M38.1654 21.9704H37.1249V21.9168H25.4999V27.0835H32.7998C31.7348 30.0911 28.8731 32.2502 25.4999 32.2502C21.22 32.2502 17.7499 28.7801 17.7499 24.5002C17.7499 20.2202 21.22 16.7502 25.4999 16.7502C27.4755 16.7502 29.2729 17.4955 30.6414 18.7129L34.2949 15.0594C31.988 12.9094 28.9022 11.5835 25.4999 11.5835C18.3667 11.5835 12.5833 17.3669 12.5833 24.5002C12.5833 31.6334 18.3667 37.4168 25.4999 37.4168C32.6331 37.4168 38.4166 31.6334 38.4166 24.5002C38.4166 23.6341 38.3275 22.7887 38.1654 21.9704Z" fill="#FFC107"/>
<path d="M14.0725 18.4881L18.3163 21.6004C19.4646 18.7574 22.2455 16.7502 25.4999 16.7502C27.4755 16.7502 29.2728 17.4955 30.6414 18.7129L34.2948 15.0594C31.9879 12.9094 28.9021 11.5835 25.4999 11.5835C20.5386 11.5835 16.2361 14.3845 14.0725 18.4881Z" fill="#FF3D00"/>
<path d="M25.5 37.4166C28.8364 37.4166 31.868 36.1398 34.16 34.0635L30.1623 30.6806C28.8655 31.6629 27.2535 32.25 25.5 32.25C22.1404 32.25 19.2878 30.1077 18.2131 27.1182L14.001 30.3635C16.1387 34.5465 20.48 37.4166 25.5 37.4166Z" fill="#4CAF50"/>
<path d="M38.1654 21.9701H37.125V21.9165H25.5V27.0832H32.7999C32.2884 28.5279 31.359 29.7737 30.1603 30.6811C30.161 30.6805 30.1616 30.6805 30.1623 30.6798L34.16 34.0627C33.8771 34.3197 38.4167 30.9582 38.4167 24.4998C38.4167 23.6338 38.3275 22.7884 38.1654 21.9701Z" fill="#1976D2"/>
</svg>
