<svg width="40" height="24" viewBox="0 0 40 24" fill="none" xmlns="http://www.w3.org/2000/svg">
<path d="M12.4331 0.0713478C13.7988 -0.00583131 15.1625 0.000105544 16.5272 0.000105544H23.4458C24.8375 0.000105544 26.2022 -0.00583131 27.5659 0.0713478C28.7998 0.123173 30.0243 0.307646 31.2177 0.621496C36.4059 2.03292 40 6.68973 40 12.0005C40 17.3112 36.4059 21.968 31.2177 23.3794C30.0242 23.6929 28.7998 23.8774 27.5659 23.9296C26.2012 24.0068 24.8375 23.9998 23.4718 23.9998H16.5532C15.1625 23.9998 13.7988 24.0058 12.4331 23.9286C11.1996 23.8763 9.97545 23.6919 8.7823 23.3784C3.59413 21.967 0 17.3102 0 11.9995C0 6.68874 3.59413 2.03193 8.7823 0.620507C9.9754 0.307062 11.1996 0.122921 12.4331 0.0713478Z" fill="#4CA6A8"/>
<path fill-rule="evenodd" clip-rule="evenodd" d="M28 22C33.5228 22 38 17.5228 38 12C38 6.47715 33.5228 2 28 2C22.4772 2 18 6.47715 18 12C18 17.5228 22.4772 22 28 22Z" fill="white"/>
</svg>
